<svg width="55" height="56" fill="none" xmlns="http://www.w3.org/2000/svg"><path d="M24 29.4V28c0-.4.3-.7.6-.7h14.2c.3 0 .6.3.6.7v1.3c0 .3-.3.6-.6.6H24.6a.6.6 0 0 1-.6-.6ZM24.6 32.6h14.2c.3 0 .6.3.6.6v1.3c0 .4-.3.7-.6.7H24.6a.6.6 0 0 1-.6-.7v-1.3c0-.3.3-.6.6-.6ZM24.6 37.7h14.2c.3 0 .6.3.6.7v1.3c0 .3-.3.6-.6.6H24.6a.6.6 0 0 1-.6-.6v-1.3c0-.4.3-.7.6-.7Z" fill="#fff"/><path fill-rule="evenodd" clip-rule="evenodd" d="M16.3 21.3a7.4 7.4 0 1 1 7.2-9.3h12.7c1 0 2.6.6 3.3 1.4l6.3 6.2c.7.8 1.3 2.3 1.3 3.3v23.2c0 1-.8 2-1.9 2h-27c-1 0-2-1-2-2V21.3Zm2.6-.4c2.6-1 4.5-3.4 4.8-6.3h10.6v8.3c0 1.1.8 2 2 2h8.3v20.5H18.9V21Zm18.8-5.7-.8-.5v7.6h7.5l-.4-.8-6.3-6.3Zm-20.4-.3h4v-2h-4v-4h-2v4h-4v2h4v4h2v-4Z" fill="#fff"/></svg>