<svg width="21" height="20" fill="none" xmlns="http://www.w3.org/2000/svg"><g clip-path="url(#a)"><path d="M16.9118 13.4559c.0601.3876-.0668.5517-.1951.5517-.1282 0-.3139-.1576-.521-.4703-.207-.3128-.2778-.6604-.1776-.8387a.2872.2872 0 0 1 .17-.1266.2977.2977 0 0 1 .2134.0219c.3406.1241.4742.6294.5103.862Zm-1.8877.8502c.4102.3347.5344.7328.318 1.0132a.6653.6653 0 0 1-.2453.182.6873.6873 0 0 1-.3038.0557.9977.9977 0 0 1-.6265-.2184c-.3714-.314-.4809-.8244-.2378-1.1139a.5343.5343 0 0 1 .196-.1366.5516.5516 0 0 1 .2382-.0391c.2448.0079.4789.0989.6612.2571Zm-.6839 3.2306c1.762 0 3.6737.5841 5.7911 2.3984.2111.181.493-.0439.3086-.27-2.08-2.5393-4.0077-3.0239-5.9221-3.4322-2.3458-.5014-3.5535-1.7794-4.3991-3.1815-.167-.2791-.2432-.23-.2579.1292a7.6552 7.6552 0 0 0 .1243 1.5895h-.286c-1.2021 0-2.3773-.3449-3.3769-.9909-.9996-.6461-1.7787-1.5644-2.2387-2.6388-.4601-1.0743-.5805-2.2565-.346-3.3971.2346-1.1405.8135-2.1882 1.6636-3.0105.85-.8223 1.9331-1.3823 3.1122-1.6091a6.2695 6.2695 0 0 1 3.512.3345c1.1107.445 2.06 1.1987 2.7279 2.1656.6679.9669 1.0244 2.1037 1.0244 3.2666a5.7847 5.7847 0 0 1-.0387.6836 9.3791 9.3791 0 0 0-1.9304-.035c-.2312.0195-.1978.1293-.0241.1539 2.0039.3501 3.3906 1.5506 3.7058 3.741a.0527.0527 0 0 0 .0135.0299.0568.0568 0 0 0 .0627.0136.0546.0546 0 0 0 .0254-.0215c1.0424-1.6856 1.4788-3.6575 1.2411-5.6082-.2377-1.9506-1.1361-3.7703-2.5551-5.1753-1.419-1.4049-3.2788-2.316-5.2893-2.5913-2.0105-.2753-4.0587.1008-5.825 1.0696-1.7663.9689-3.1515 2.476-3.9395 4.2861C.436 7.247.2895 9.2586.8073 11.1578c.5179 1.8992 1.671 3.5792 3.2795 4.778 1.6084 1.1988 3.5819 1.849 5.6124 1.8491 1.3426.0038 2.6798-.2494 4.641-.2494v.0012Z" fill="#3E9CDC"/></g><defs><clipPath id="a"><path fill="#fff" transform="translate(.5)" d="M0 0h20v20H0z"/></clipPath></defs></svg>